<?xml version="1.0" encoding="UTF-8"?><svg id="Layer_1" xmlns="http://www.w3.org/2000/svg" xmlns:xlink="http://www.w3.org/1999/xlink" viewBox="0 0 250.84 161.42"><defs><style>.cls-1,.cls-2{stroke-width:.5px;}.cls-1,.cls-2,.cls-3,.cls-4,.cls-5,.cls-6,.cls-7,.cls-8{stroke:#000;stroke-miterlimit:10;}.cls-1,.cls-5{fill:#ebcc5e;}.cls-2,.cls-6{fill:#fff;}.cls-3{fill:url(#linear-gradient-2);}.cls-4{fill:url(#linear-gradient-3);}.cls-7{fill:#f7da06;}.cls-8{fill:url(#linear-gradient);}</style><linearGradient id="linear-gradient" x1="133.84" y1="123.8" x2="133.84" y2="24.8" gradientUnits="userSpaceOnUse"><stop offset=".91" stop-color="#fff"/><stop offset=".94" stop-color="#f4f4f4"/><stop offset=".98" stop-color="#d6d6d6"/><stop offset="1" stop-color="#cbcbcb"/></linearGradient><linearGradient id="linear-gradient-2" x1="176.98" y1="90.2" x2="239.33" y2="126.19" gradientUnits="userSpaceOnUse"><stop offset=".92" stop-color="#fff"/><stop offset=".95" stop-color="#f4f4f4"/><stop offset=".99" stop-color="#d6d6d6"/><stop offset="1" stop-color="#cbcbcb"/></linearGradient><linearGradient id="linear-gradient-3" x1="20.48" y1="40.93" x2="40.09" y2="6.96" gradientUnits="userSpaceOnUse"><stop offset=".83" stop-color="#fff"/><stop offset=".88" stop-color="#f4f4f4"/><stop offset=".97" stop-color="#d6d6d6"/><stop offset="1" stop-color="#cbcbcb"/></linearGradient></defs><rect class="cls-7" x="44.84" y="21.8" width="178" height="105" rx="7.8" ry="7.8"/><rect class="cls-8" x="49.92" y="24.8" width="167.83" height="99" rx="7.8" ry="7.8"/><rect class="cls-6" x="59.84" y="34.8" width="67" height="80" rx="5.61" ry="5.61"/><rect class="cls-6" x="68.84" y="60.8" width="48" height="7" rx="2.1" ry="2.1"/><rect class="cls-6" x="147.84" y="54.8" width="57" height="7" rx="2.1" ry="2.1"/><rect class="cls-6" x="147.84" y="65.8" width="28" height="7" rx="2.1" ry="2.1"/><rect class="cls-6" x="68.84" y="73.8" width="48" height="7" rx="2.1" ry="2.1"/><rect class="cls-6" x="68.84" y="86.8" width="48" height="7" rx="2.1" ry="2.1"/><rect class="cls-5" x="34.84" y="126.8" width="198" height="10" rx="2.39" ry="2.39"/><path class="cls-5" d="m173.76,83.53c23.94-4.3,34.38-14.73,36.83-14.73,4.3,0,10.44,9.82,38.06,12.28,3.87.34,4.3,63.23-35.86,79.78-.3.12-.98.03-.98.03-42.36-22.71-38.06-77.35-38.06-77.35Z"/><path class="cls-3" d="m178.8,87.05c20.79-3.73,29.85-12.79,31.98-12.79,3.73,0,9.06,8.53,33.04,10.66,3.36.3,3.73,54.89-31.13,69.26-.26.11-.85.02-.85.02-36.77-19.72-33.04-67.15-33.04-67.15Z"/><rect class="cls-6" x="199.3" y="106.74" width="25.04" height="19.23" rx="3.39" ry="3.39"/><path class="cls-5" d="m210.03,117.21c0-.32-2.25-2.25-1.28-3.85,1.28-1.93,3.85-1.6,4.81,0s-.96,3.53-.96,3.85,1.28,3.34.96,3.6-4.26.39-4.54,0,1.01-3.28,1.01-3.6Z"/><path class="cls-6" d="m204.36,104.91c-.33-.94-.67-6.57,1.33-7.82s10.97-1.25,12.3,0,1.66,7.5,1,7.82c-.94.44-2,.31-2.33-.31s.33-4.07-.67-5.32-7.98-1.25-8.98,0,0,5.32-.67,5.63-1.66.31-2,0Z"/><rect class="cls-2" x="140.3" y="48.46" width="15.04" height="11.55" rx="3.39" ry="3.39"/><path class="cls-1" d="m146.74,54.75c0-.19-1.35-1.35-.77-2.31.77-1.16,2.31-.96,2.89,0s-.58,2.12-.58,2.31.77,2.01.58,2.16-2.56.23-2.73,0,.6-1.97.6-2.16Z"/><path class="cls-1" d="m143.34,47.37c-.2-.56-.4-3.94.8-4.7s6.59-.75,7.39,0,1,4.51.6,4.7c-.56.27-1.2.19-1.4-.19s.2-2.44-.4-3.19-4.79-.75-5.39,0,0,3.19-.4,3.38-1,.19-1.2,0Z"/><path class="cls-4" d="m11.2,34.19S-1.36,32.8.74,21.64c1.4-4.88,8.37-4.88,8.37-4.88,0,0-.7-9.07,9.77-9.77,2.79-2.09,8.37-14.65,18.14,2.09,4.19.7,8.37-2.09,11.86,6.98,9.77,0,19.53,17.44-4.71,18.14-7.85-.7-32.96,0-32.96,0Z"/><path class="cls-5" d="m19.61,47.66c9.45-6.28,31.65-1.16,32.28.7.89,1.4-.5,2.09-1.88,2.79-2.07.7-29.02,0-29.02,0,0,0-3.09-1.4-1.38-3.49Z"/><path class="cls-6" d="m19.29,48.35c-.7,0-.7,9.77,0,9.77,14.65,5.58,32.09,1.4,32.79.7s.7-9.77,0-9.77c-4.19,1.4-17.44,3.49-32.79-.7Z"/><path class="cls-5" d="m19.61,35.8c9.45-6.28,31.65-1.16,32.28.7.89,1.4-.5,2.09-1.88,2.79-2.07.7-29.02,0-29.02,0,0,0-3.09-1.4-1.38-3.49Z"/><path class="cls-6" d="m19.29,36.49c-.7,0-.7,9.77,0,9.77,14.65,5.58,32.09,1.4,32.79.7s.7-9.77,0-9.77c-4.19,1.4-17.44,3.49-32.79-.7Z"/><path class="cls-5" d="m19.61,23.94c9.45-6.28,31.65-1.16,32.28.7.89,1.4-.5,2.09-1.88,2.79-2.07.7-29.02,0-29.02,0,0,0-3.09-1.4-1.38-3.49Z"/><path class="cls-6" d="m19.29,24.64c-.7,0-.7,9.77,0,9.77,14.65,5.58,32.09,1.4,32.79.7s.7-9.77,0-9.77c-4.19,1.4-17.44,3.49-32.79-.7Z"/><circle class="cls-5" cx="24.52" cy="30.56" r="1.05"/><circle class="cls-5" cx="28.01" cy="31.26" r="1.05"/><circle class="cls-5" cx="24.52" cy="41.73" r="1.05"/><circle class="cls-5" cx="28.01" cy="42.42" r="1.05"/><circle class="cls-5" cx="24.52" cy="52.89" r="1.05"/><circle class="cls-5" cx="28.01" cy="53.59" r="1.05"/></svg>