<?xml version="1.0" encoding="UTF-8"?><svg id="Layer_1" xmlns="http://www.w3.org/2000/svg" viewBox="0 0 70.03 101.88"><defs><style>.cls-1{fill:#ebcc5e;}.cls-1,.cls-2{stroke:#000;stroke-miterlimit:10;stroke-width:.25px;}.cls-2{fill:#c1a449;}</style></defs><path class="cls-2" d="m.17,51.68s.83,42.97,31,49c25,5,3-45,3-45L.17,51.68Z"/><path class="cls-1" d="m15.7,57.68c.96,2-3.82,48,26.75,43.81,31.53-26.81,28.66-69.81,25.8-70.81-5.73,1-30.5-3.51-30.5-3.51,0,0-23.01,28.51-22.05,30.51Z"/><path class="cls-1" d="m29.17,19.68c5,5,7,7,13,11,0,2-8,21-26,29-1,1-17-7-16-8,15-5,27-29,29-32Z"/><path class="cls-2" d="m29.38,19.68c6.29,8.5,12.79,11,12.79,11,0,0,12,7,25.88,0-2.88-2-9.88-6-10.88-7-2,0-5,4-27.79-4Z"/><path class="cls-2" d="m40.44,68.81c-9.39-11.92,8.98-25.9,3.92-1.58,3.3,10.29,2.68,10.22,1.34,11.08s-6.82,4.75-6.9,3.28c-.11-2.03.4-6.94,1.64-12.78Z"/><path class="cls-2" d="m18.35,43.34c1.46.73,2.2.73,3.66-1.46s0-19.76,1.46-23.42,16.13-14.37,19.03-12.44,2.93,21.96,4.39,21.96c2.93,0,2.93-.73,3.66-2.2S48.36.89,44.7.16s-22.69,9.81-25.62,14.78-2.2,27.66-.73,28.4Z"/></svg>