<?xml version="1.0" encoding="UTF-8"?><svg id="Layer_1" xmlns="http://www.w3.org/2000/svg" viewBox="0 0 192.51 119.99"><defs><style>.cls-1,.cls-2{fill:#f7d292;}.cls-3,.cls-4,.cls-5{fill:#fff;}.cls-6{fill:#efefef;}.cls-7{fill:#a2ccb5;}.cls-8{fill:#c82100;}.cls-9{fill:#13c8f6;}.cls-10,.cls-11{fill:#63987c;}.cls-12{fill:#606a9f;}.cls-13{fill:#757faa;}.cls-14{fill:#4ed3f7;}.cls-4,.cls-15{stroke:#63987c;stroke-miterlimit:10;}.cls-15{fill:none;}.cls-16{opacity:.35;}.cls-5{opacity:.87;}.cls-17{opacity:.31;}.cls-17,.cls-18{fill:#f7f7f7;}.cls-18{opacity:.43;}.cls-2{opacity:.46;}.cls-11{opacity:.65;}</style></defs><g class="cls-16"><polygon class="cls-6" points="-2.62 -1.18 .79 -4.59 -2.75 -8.13 -6.3 -4.59 -2.89 -1.18 -6.3 2.24 -2.89 5.65 -6.3 9.06 -2.89 12.47 -6.3 15.88 -2.89 19.29 -6.3 22.7 -2.89 26.11 -6.3 29.52 -2.89 32.93 -6.3 36.34 -2.89 39.75 -6.3 43.16 -2.89 46.57 -6.3 49.98 -2.89 53.4 -6.3 56.81 -2.75 60.35 .79 56.81 -2.62 53.4 .79 49.98 -2.62 46.57 .79 43.16 -2.62 39.75 .79 36.34 -2.62 32.93 .79 29.52 -2.62 26.11 .79 22.7 -2.62 19.29 .79 15.88 -2.62 12.47 .79 9.06 -2.62 5.65 .79 2.24 -2.62 -1.18"/><polygon class="cls-6" points="4.2 -1.18 7.62 -4.59 4.07 -8.13 .52 -4.59 3.93 -1.18 .52 2.24 3.93 5.65 .52 9.06 3.93 12.47 .52 15.88 3.93 19.29 .52 22.7 3.93 26.11 .52 29.52 3.93 32.93 .52 36.34 3.93 39.75 .52 43.16 3.93 46.57 .52 49.98 3.93 53.4 .52 56.81 4.07 60.35 7.62 56.81 4.2 53.4 7.62 49.98 4.2 46.57 7.62 43.16 4.2 39.75 7.62 36.34 4.2 32.93 7.62 29.52 4.2 26.11 7.62 22.7 4.2 19.29 7.62 15.88 4.2 12.47 7.62 9.06 4.2 5.65 7.62 2.24 4.2 -1.18"/><polygon class="cls-6" points="11.03 -1.18 14.44 -4.59 10.89 -8.13 7.34 -4.59 10.75 -1.18 7.34 2.24 10.75 5.65 7.34 9.06 10.75 12.47 7.34 15.88 10.75 19.29 7.34 22.7 10.75 26.11 7.34 29.52 10.75 32.93 7.34 36.34 10.75 39.75 7.34 43.16 10.75 46.57 7.34 49.98 10.75 53.4 7.34 56.81 10.89 60.35 14.44 56.81 11.03 53.4 14.44 49.98 11.03 46.57 14.44 43.16 11.03 39.75 14.44 36.34 11.03 32.93 14.44 29.52 11.03 26.11 14.44 22.7 11.03 19.29 14.44 15.88 11.03 12.47 14.44 9.06 11.03 5.65 14.44 2.24 11.03 -1.18"/><polygon class="cls-6" points="17.85 -1.18 21.26 -4.59 17.71 -8.13 14.16 -4.59 17.57 -1.18 14.16 2.24 17.57 5.65 14.16 9.06 17.57 12.47 14.16 15.88 17.57 19.29 14.16 22.7 17.57 26.11 14.16 29.52 17.57 32.93 14.16 36.34 17.57 39.75 14.16 43.16 17.57 46.57 14.16 49.98 17.57 53.4 14.16 56.81 17.71 60.35 21.26 56.81 17.85 53.4 21.26 49.98 17.85 46.57 21.26 43.16 17.85 39.75 21.26 36.34 17.85 32.93 21.26 29.52 17.85 26.11 21.26 22.7 17.85 19.29 21.26 15.88 17.85 12.47 21.26 9.06 17.85 5.65 21.26 2.24 17.85 -1.18"/><polygon class="cls-6" points="24.67 -1.18 28.08 -4.59 24.53 -8.13 20.98 -4.59 24.39 -1.18 20.98 2.24 24.39 5.65 20.98 9.06 24.39 12.47 20.98 15.88 24.39 19.29 20.98 22.7 24.39 26.11 20.98 29.52 24.39 32.93 20.98 36.34 24.39 39.75 20.98 43.16 24.39 46.57 20.98 49.98 24.39 53.4 20.98 56.81 24.53 60.35 28.08 56.81 24.67 53.4 28.08 49.98 24.67 46.57 28.08 43.16 24.67 39.75 28.08 36.34 24.67 32.93 28.08 29.52 24.67 26.11 28.08 22.7 24.67 19.29 28.08 15.88 24.67 12.47 28.08 9.06 24.67 5.65 28.08 2.24 24.67 -1.18"/><polygon class="cls-6" points="31.49 -1.18 34.9 -4.59 31.35 -8.13 27.81 -4.59 31.22 -1.18 27.81 2.24 31.22 5.65 27.81 9.06 31.22 12.47 27.81 15.88 31.22 19.29 27.81 22.7 31.22 26.11 27.81 29.52 31.22 32.93 27.81 36.34 31.22 39.75 27.81 43.16 31.22 46.57 27.81 49.98 31.22 53.4 27.81 56.81 31.35 60.35 34.9 56.81 31.49 53.4 34.9 49.98 31.49 46.57 34.9 43.16 31.49 39.75 34.9 36.34 31.49 32.93 34.9 29.52 31.49 26.11 34.9 22.7 31.49 19.29 34.9 15.88 31.49 12.47 34.9 9.06 31.49 5.65 34.9 2.24 31.49 -1.18"/><polygon class="cls-6" points="38.31 -1.18 41.72 -4.59 38.17 -8.13 34.63 -4.59 38.04 -1.18 34.63 2.24 38.04 5.65 34.63 9.06 38.04 12.47 34.63 15.88 38.04 19.29 34.63 22.7 38.04 26.11 34.63 29.52 38.04 32.93 34.63 36.34 38.04 39.75 34.63 43.16 38.04 46.57 34.63 49.98 38.04 53.4 34.63 56.81 38.17 60.35 41.72 56.81 38.31 53.4 41.72 49.98 38.31 46.57 41.72 43.16 38.31 39.75 41.72 36.34 38.31 32.93 41.72 29.52 38.31 26.11 41.72 22.7 38.31 19.29 41.72 15.88 38.31 12.47 41.72 9.06 38.31 5.65 41.72 2.24 38.31 -1.18"/><polygon class="cls-6" points="45.13 -1.18 48.54 -4.59 45 -8.13 41.45 -4.59 44.86 -1.18 41.45 2.24 44.86 5.65 41.45 9.06 44.86 12.47 41.45 15.88 44.86 19.29 41.45 22.7 44.86 26.11 41.45 29.52 44.86 32.93 41.45 36.34 44.86 39.75 41.45 43.16 44.86 46.57 41.45 49.98 44.86 53.4 41.45 56.81 45 60.35 48.54 56.81 45.13 53.4 48.54 49.98 45.13 46.57 48.54 43.16 45.13 39.75 48.54 36.34 45.13 32.93 48.54 29.52 45.13 26.11 48.54 22.7 45.13 19.29 48.54 15.88 45.13 12.47 48.54 9.06 45.13 5.65 48.54 2.24 45.13 -1.18"/><polygon class="cls-6" points="51.95 -1.18 55.36 -4.59 51.82 -8.13 48.27 -4.59 51.68 -1.18 48.27 2.24 51.68 5.65 48.27 9.06 51.68 12.47 48.27 15.88 51.68 19.29 48.27 22.7 51.68 26.11 48.27 29.52 51.68 32.93 48.27 36.34 51.68 39.75 48.27 43.16 51.68 46.57 48.27 49.98 51.68 53.4 48.27 56.81 51.82 60.35 55.36 56.81 51.95 53.4 55.36 49.98 51.95 46.57 55.36 43.16 51.95 39.75 55.36 36.34 51.95 32.93 55.36 29.52 51.95 26.11 55.36 22.7 51.95 19.29 55.36 15.88 51.95 12.47 55.36 9.06 51.95 5.65 55.36 2.24 51.95 -1.18"/><polygon class="cls-6" points="58.78 -1.18 62.19 -4.59 58.64 -8.13 55.09 -4.59 58.5 -1.18 55.09 2.24 58.5 5.65 55.09 9.06 58.5 12.47 55.09 15.88 58.5 19.29 55.09 22.7 58.5 26.11 55.09 29.52 58.5 32.93 55.09 36.34 58.5 39.75 55.09 43.16 58.5 46.57 55.09 49.98 58.5 53.4 55.09 56.81 58.64 60.35 62.19 56.81 58.78 53.4 62.19 49.98 58.78 46.57 62.19 43.16 58.78 39.75 62.19 36.34 58.78 32.93 62.19 29.52 58.78 26.11 62.19 22.7 58.78 19.29 62.19 15.88 58.78 12.47 62.19 9.06 58.78 5.65 62.19 2.24 58.78 -1.18"/><polygon class="cls-6" points="65.6 -1.18 69.01 -4.59 65.46 -8.13 61.91 -4.59 65.32 -1.18 61.91 2.24 65.32 5.65 61.91 9.06 65.32 12.47 61.91 15.88 65.32 19.29 61.91 22.7 65.32 26.11 61.91 29.52 65.32 32.93 61.91 36.34 65.32 39.75 61.91 43.16 65.32 46.57 61.91 49.98 65.32 53.4 61.91 56.81 65.46 60.35 69.01 56.81 65.6 53.4 69.01 49.98 65.6 46.57 69.01 43.16 65.6 39.75 69.01 36.34 65.6 32.93 69.01 29.52 65.6 26.11 69.01 22.7 65.6 19.29 69.01 15.88 65.6 12.47 69.01 9.06 65.6 5.65 69.01 2.24 65.6 -1.18"/><polygon class="cls-6" points="72.42 -1.18 75.83 -4.59 72.28 -8.13 68.73 -4.59 72.14 -1.18 68.73 2.24 72.14 5.65 68.73 9.06 72.14 12.47 68.73 15.88 72.14 19.29 68.73 22.7 72.14 26.11 68.73 29.52 72.14 32.93 68.73 36.34 72.14 39.75 68.73 43.16 72.14 46.57 68.73 49.98 72.14 53.4 68.73 56.81 72.28 60.35 75.83 56.81 72.42 53.4 75.83 49.98 72.42 46.57 75.83 43.16 72.42 39.75 75.83 36.34 72.42 32.93 75.83 29.52 72.42 26.11 75.83 22.7 72.42 19.29 75.83 15.88 72.42 12.47 75.83 9.06 72.42 5.65 75.83 2.24 72.42 -1.18"/><polygon class="cls-6" points="79.24 -1.18 82.65 -4.59 79.1 -8.13 75.55 -4.59 78.96 -1.18 75.55 2.24 78.96 5.65 75.55 9.06 78.96 12.47 75.55 15.88 78.96 19.29 75.55 22.7 78.96 26.11 75.55 29.52 78.96 32.93 75.55 36.34 78.96 39.75 75.55 43.16 78.96 46.57 75.55 49.98 78.96 53.4 75.55 56.81 79.1 60.35 82.65 56.81 79.24 53.4 82.65 49.98 79.24 46.57 82.65 43.16 79.24 39.75 82.65 36.34 79.24 32.93 82.65 29.52 79.24 26.11 82.65 22.7 79.24 19.29 82.65 15.88 79.24 12.47 82.65 9.06 79.24 5.65 82.65 2.24 79.24 -1.18"/><polygon class="cls-6" points="86.06 -1.18 89.47 -4.59 85.92 -8.13 82.38 -4.59 85.79 -1.18 82.38 2.24 85.79 5.65 82.38 9.06 85.79 12.47 82.38 15.88 85.79 19.29 82.38 22.7 85.79 26.11 82.38 29.52 85.79 32.93 82.38 36.34 85.79 39.75 82.38 43.16 85.79 46.57 82.38 49.98 85.79 53.4 82.38 56.81 85.92 60.35 89.47 56.81 86.06 53.4 89.47 49.98 86.06 46.57 89.47 43.16 86.06 39.75 89.47 36.34 86.06 32.93 89.47 29.52 86.06 26.11 89.47 22.7 86.06 19.29 89.47 15.88 86.06 12.47 89.47 9.06 86.06 5.65 89.47 2.24 86.06 -1.18"/><polygon class="cls-6" points="92.88 -1.18 96.29 -4.59 92.74 -8.13 89.2 -4.59 92.61 -1.18 89.2 2.24 92.61 5.65 89.2 9.06 92.61 12.47 89.2 15.88 92.61 19.29 89.2 22.7 92.61 26.11 89.2 29.52 92.61 32.93 89.2 36.34 92.61 39.75 89.2 43.16 92.61 46.57 89.2 49.98 92.61 53.4 89.2 56.81 92.74 60.35 96.29 56.81 92.88 53.4 96.29 49.98 92.88 46.57 96.29 43.16 92.88 39.75 96.29 36.34 92.88 32.93 96.29 29.52 92.88 26.11 96.29 22.7 92.88 19.29 96.29 15.88 92.88 12.47 96.29 9.06 92.88 5.65 96.29 2.24 92.88 -1.18"/><polygon class="cls-6" points="99.7 -1.18 103.11 -4.59 99.57 -8.13 96.02 -4.59 99.43 -1.18 96.02 2.24 99.43 5.65 96.02 9.06 99.43 12.47 96.02 15.88 99.43 19.29 96.02 22.7 99.43 26.11 96.02 29.52 99.43 32.93 96.02 36.34 99.43 39.75 96.02 43.16 99.43 46.57 96.02 49.98 99.43 53.4 96.02 56.81 99.57 60.35 103.11 56.81 99.7 53.4 103.11 49.98 99.7 46.57 103.11 43.16 99.7 39.75 103.11 36.34 99.7 32.93 103.11 29.52 99.7 26.11 103.11 22.7 99.7 19.29 103.11 15.88 99.7 12.47 103.11 9.06 99.7 5.65 103.11 2.24 99.7 -1.18"/><polygon class="cls-6" points="106.52 -1.18 109.93 -4.59 106.39 -8.13 102.84 -4.59 106.25 -1.18 102.84 2.24 106.25 5.65 102.84 9.06 106.25 12.47 102.84 15.88 106.25 19.29 102.84 22.7 106.25 26.11 102.84 29.52 106.25 32.93 102.84 36.34 106.25 39.75 102.84 43.16 106.25 46.57 102.84 49.98 106.25 53.4 102.84 56.81 106.39 60.35 109.93 56.81 106.52 53.4 109.93 49.98 106.52 46.57 109.93 43.16 106.52 39.75 109.93 36.34 106.52 32.93 109.93 29.52 106.52 26.11 109.93 22.7 106.52 19.29 109.93 15.88 106.52 12.47 109.93 9.06 106.52 5.65 109.93 2.24 106.52 -1.18"/><polygon class="cls-6" points="113.35 -1.18 116.76 -4.59 113.21 -8.13 109.66 -4.59 113.07 -1.18 109.66 2.24 113.07 5.65 109.66 9.06 113.07 12.47 109.66 15.88 113.07 19.29 109.66 22.7 113.07 26.11 109.66 29.52 113.07 32.93 109.66 36.34 113.07 39.75 109.66 43.16 113.07 46.57 109.66 49.98 113.07 53.4 109.66 56.81 113.21 60.35 116.76 56.81 113.35 53.4 116.76 49.98 113.35 46.57 116.76 43.16 113.35 39.75 116.76 36.34 113.35 32.93 116.76 29.52 113.35 26.11 116.76 22.7 113.35 19.29 116.76 15.88 113.35 12.47 116.76 9.06 113.35 5.65 116.76 2.24 113.35 -1.18"/><polygon class="cls-6" points="120.42 -1.18 123.83 -4.59 120.28 -8.13 116.73 -4.59 120.14 -1.18 116.73 2.24 120.14 5.65 116.73 9.06 120.14 12.47 116.73 15.88 120.14 19.29 116.73 22.7 120.14 26.11 116.73 29.52 120.14 32.93 116.73 36.34 120.14 39.75 116.73 43.16 120.14 46.57 116.73 49.98 120.14 53.4 116.73 56.81 120.28 60.35 123.83 56.81 120.42 53.4 123.83 49.98 120.42 46.57 123.83 43.16 120.42 39.75 123.83 36.34 120.42 32.93 123.83 29.52 120.42 26.11 123.83 22.7 120.42 19.29 123.83 15.88 120.42 12.47 123.83 9.06 120.42 5.65 123.83 2.24 120.42 -1.18"/><polygon class="cls-6" points="127.24 -1.18 130.65 -4.59 127.1 -8.13 123.55 -4.59 126.96 -1.18 123.55 2.24 126.96 5.65 123.55 9.06 126.96 12.47 123.55 15.88 126.96 19.29 123.55 22.7 126.96 26.11 123.55 29.52 126.96 32.93 123.55 36.34 126.96 39.75 123.55 43.16 126.96 46.57 123.55 49.98 126.96 53.4 123.55 56.81 127.1 60.35 130.65 56.81 127.24 53.4 130.65 49.98 127.24 46.57 130.65 43.16 127.24 39.75 130.65 36.34 127.24 32.93 130.65 29.52 127.24 26.11 130.65 22.7 127.24 19.29 130.65 15.88 127.24 12.47 130.65 9.06 127.24 5.65 130.65 2.24 127.24 -1.18"/><polygon class="cls-6" points="134.06 -1.18 137.47 -4.59 133.92 -8.13 130.38 -4.59 133.79 -1.18 130.38 2.24 133.79 5.65 130.38 9.06 133.79 12.47 130.38 15.88 133.79 19.29 130.38 22.7 133.79 26.11 130.38 29.52 133.79 32.93 130.38 36.34 133.79 39.75 130.38 43.16 133.79 46.57 130.38 49.98 133.79 53.4 130.38 56.81 133.92 60.35 137.47 56.81 134.06 53.4 137.47 49.98 134.06 46.57 137.47 43.16 134.06 39.75 137.47 36.34 134.06 32.93 137.47 29.52 134.06 26.11 137.47 22.7 134.06 19.29 137.47 15.88 134.06 12.47 137.47 9.06 134.06 5.65 137.47 2.24 134.06 -1.18"/><polygon class="cls-6" points="140.88 -1.18 144.29 -4.59 140.74 -8.13 137.2 -4.59 140.61 -1.18 137.2 2.24 140.61 5.65 137.2 9.06 140.61 12.47 137.2 15.88 140.61 19.29 137.2 22.7 140.61 26.11 137.2 29.52 140.61 32.93 137.2 36.34 140.61 39.75 137.2 43.16 140.61 46.57 137.2 49.98 140.61 53.4 137.2 56.81 140.74 60.35 144.29 56.81 140.88 53.4 144.29 49.98 140.88 46.57 144.29 43.16 140.88 39.75 144.29 36.34 140.88 32.93 144.29 29.52 140.88 26.11 144.29 22.7 140.88 19.29 144.29 15.88 140.88 12.47 144.29 9.06 140.88 5.65 144.29 2.24 140.88 -1.18"/><polygon class="cls-6" points="147.7 -1.18 151.11 -4.59 147.57 -8.13 144.02 -4.59 147.43 -1.18 144.02 2.24 147.43 5.65 144.02 9.06 147.43 12.47 144.02 15.88 147.43 19.29 144.02 22.7 147.43 26.11 144.02 29.52 147.43 32.93 144.02 36.34 147.43 39.75 144.02 43.16 147.43 46.57 144.02 49.98 147.43 53.4 144.02 56.81 147.57 60.35 151.11 56.81 147.7 53.4 151.11 49.98 147.7 46.57 151.11 43.16 147.7 39.75 151.11 36.34 147.7 32.93 151.11 29.52 147.7 26.11 151.11 22.7 147.7 19.29 151.11 15.88 147.7 12.47 151.11 9.06 147.7 5.65 151.11 2.24 147.7 -1.18"/><polygon class="cls-6" points="154.52 -1.18 157.93 -4.59 154.39 -8.13 150.84 -4.59 154.25 -1.18 150.84 2.24 154.25 5.65 150.84 9.06 154.25 12.47 150.84 15.88 154.25 19.29 150.84 22.7 154.25 26.11 150.84 29.52 154.25 32.93 150.84 36.34 154.25 39.75 150.84 43.16 154.25 46.57 150.84 49.98 154.25 53.4 150.84 56.81 154.39 60.35 157.93 56.81 154.52 53.4 157.93 49.98 154.52 46.57 157.93 43.16 154.52 39.75 157.93 36.34 154.52 32.93 157.93 29.52 154.52 26.11 157.93 22.7 154.52 19.29 157.93 15.88 154.52 12.47 157.93 9.06 154.52 5.65 157.93 2.24 154.52 -1.18"/><polygon class="cls-6" points="161.35 -1.18 164.76 -4.59 161.21 -8.13 157.66 -4.59 161.07 -1.18 157.66 2.24 161.07 5.65 157.66 9.06 161.07 12.47 157.66 15.88 161.07 19.29 157.66 22.7 161.07 26.11 157.66 29.52 161.07 32.93 157.66 36.34 161.07 39.75 157.66 43.16 161.07 46.57 157.66 49.98 161.07 53.4 157.66 56.81 161.21 60.35 164.76 56.81 161.35 53.4 164.76 49.98 161.35 46.57 164.76 43.16 161.35 39.75 164.76 36.34 161.35 32.93 164.76 29.52 161.35 26.11 164.76 22.7 161.35 19.29 164.76 15.88 161.35 12.47 164.76 9.06 161.35 5.65 164.76 2.24 161.35 -1.18"/><polygon class="cls-6" points="167.88 -1.18 171.29 -4.59 167.74 -8.13 164.2 -4.59 167.61 -1.18 164.2 2.24 167.61 5.65 164.2 9.06 167.61 12.47 164.2 15.88 167.61 19.29 164.2 22.7 167.61 26.11 164.2 29.52 167.61 32.93 164.2 36.34 167.61 39.75 164.2 43.16 167.61 46.57 164.2 49.98 167.61 53.4 164.2 56.81 167.74 60.35 171.29 56.81 167.88 53.4 171.29 49.98 167.88 46.57 171.29 43.16 167.88 39.75 171.29 36.34 167.88 32.93 171.29 29.52 167.88 26.11 171.29 22.7 167.88 19.29 171.29 15.88 167.88 12.47 171.29 9.06 167.88 5.65 171.29 2.24 167.88 -1.18"/><polygon class="cls-6" points="174.7 -1.18 178.11 -4.59 174.57 -8.13 171.02 -4.59 174.43 -1.18 171.02 2.24 174.43 5.65 171.02 9.06 174.43 12.47 171.02 15.88 174.43 19.29 171.02 22.7 174.43 26.11 171.02 29.52 174.43 32.93 171.02 36.34 174.43 39.75 171.02 43.16 174.43 46.57 171.02 49.98 174.43 53.4 171.02 56.81 174.57 60.35 178.11 56.81 174.7 53.4 178.11 49.98 174.7 46.57 178.11 43.16 174.7 39.75 178.11 36.34 174.7 32.93 178.11 29.52 174.7 26.11 178.11 22.7 174.7 19.29 178.11 15.88 174.7 12.47 178.11 9.06 174.7 5.65 178.11 2.24 174.7 -1.18"/><polygon class="cls-6" points="181.52 -1.18 184.93 -4.59 181.39 -8.13 177.84 -4.59 181.25 -1.18 177.84 2.24 181.25 5.65 177.84 9.06 181.25 12.47 177.84 15.88 181.25 19.29 177.84 22.7 181.25 26.11 177.84 29.52 181.25 32.93 177.84 36.34 181.25 39.75 177.84 43.16 181.25 46.57 177.84 49.98 181.25 53.4 177.84 56.81 181.39 60.35 184.93 56.81 181.52 53.4 184.93 49.98 181.52 46.57 184.93 43.16 181.52 39.75 184.93 36.34 181.52 32.93 184.93 29.52 181.52 26.11 184.93 22.7 181.52 19.29 184.93 15.88 181.52 12.47 184.93 9.06 181.52 5.65 184.93 2.24 181.52 -1.18"/><polygon class="cls-6" points="188.35 -1.18 191.76 -4.59 188.21 -8.13 184.66 -4.59 188.07 -1.18 184.66 2.24 188.07 5.65 184.66 9.06 188.07 12.47 184.66 15.88 188.07 19.29 184.66 22.7 188.07 26.11 184.66 29.52 188.07 32.93 184.66 36.34 188.07 39.75 184.66 43.16 188.07 46.57 184.66 49.98 188.07 53.4 184.66 56.81 188.21 60.35 191.76 56.81 188.35 53.4 191.76 49.98 188.35 46.57 191.76 43.16 188.35 39.75 191.76 36.34 188.35 32.93 191.76 29.52 188.35 26.11 191.76 22.7 188.35 19.29 191.76 15.88 188.35 12.47 191.76 9.06 188.35 5.65 191.76 2.24 188.35 -1.18"/><polygon class="cls-6" points="194.52 -1.18 197.93 -4.59 194.39 -8.13 190.84 -4.59 194.25 -1.18 190.84 2.24 194.25 5.65 190.84 9.06 194.25 12.47 190.84 15.88 194.25 19.29 190.84 22.7 194.25 26.11 190.84 29.52 194.25 32.93 190.84 36.34 194.25 39.75 190.84 43.16 194.25 46.57 190.84 49.98 194.25 53.4 190.84 56.81 194.39 60.35 197.93 56.81 194.52 53.4 197.93 49.98 194.52 46.57 197.93 43.16 194.52 39.75 197.93 36.34 194.52 32.93 197.93 29.52 194.52 26.11 197.93 22.7 194.52 19.29 197.93 15.88 194.52 12.47 197.93 9.06 194.52 5.65 197.93 2.24 194.52 -1.18"/><polygon class="cls-6" points="-2.62 66.82 .79 63.41 -2.75 59.87 -6.3 63.41 -2.89 66.82 -6.3 70.24 -2.89 73.65 -6.3 77.06 -2.89 80.47 -6.3 83.88 -2.89 87.29 -6.3 90.7 -2.89 94.11 -6.3 97.52 -2.89 100.93 -6.3 104.34 -2.89 107.75 -6.3 111.16 -2.89 114.57 -6.3 117.98 -2.89 121.4 -6.3 124.81 -2.75 128.35 .79 124.81 -2.62 121.4 .79 117.98 -2.62 114.57 .79 111.16 -2.62 107.75 .79 104.34 -2.62 100.93 .79 97.52 -2.62 94.11 .79 90.7 -2.62 87.29 .79 83.88 -2.62 80.47 .79 77.06 -2.62 73.65 .79 70.24 -2.62 66.82"/><polygon class="cls-6" points="4.2 66.82 7.62 63.41 4.07 59.87 .52 63.41 3.93 66.82 .52 70.24 3.93 73.65 .52 77.06 3.93 80.47 .52 83.88 3.93 87.29 .52 90.7 3.93 94.11 .52 97.52 3.93 100.93 .52 104.34 3.93 107.75 .52 111.16 3.93 114.57 .52 117.98 3.93 121.4 .52 124.81 4.07 128.35 7.62 124.81 4.2 121.4 7.62 117.98 4.2 114.57 7.62 111.16 4.2 107.75 7.62 104.34 4.2 100.93 7.62 97.52 4.2 94.11 7.62 90.7 4.2 87.29 7.62 83.88 4.2 80.47 7.62 77.06 4.2 73.65 7.62 70.24 4.2 66.82"/><polygon class="cls-6" points="11.03 66.82 14.44 63.41 10.89 59.87 7.34 63.41 10.75 66.82 7.34 70.24 10.75 73.65 7.34 77.06 10.75 80.47 7.34 83.88 10.75 87.29 7.34 90.7 10.75 94.11 7.34 97.52 10.75 100.93 7.34 104.34 10.75 107.75 7.34 111.16 10.75 114.57 7.34 117.98 10.75 121.4 7.34 124.81 10.89 128.35 14.44 124.81 11.03 121.4 14.44 117.98 11.03 114.57 14.44 111.16 11.03 107.75 14.44 104.34 11.03 100.93 14.44 97.52 11.03 94.11 14.44 90.7 11.03 87.29 14.44 83.88 11.03 80.47 14.44 77.06 11.03 73.65 14.44 70.24 11.03 66.82"/><polygon class="cls-6" points="17.85 66.82 21.26 63.41 17.71 59.87 14.16 63.41 17.57 66.82 14.16 70.24 17.57 73.65 14.16 77.06 17.57 80.47 14.16 83.88 17.57 87.29 14.16 90.7 17.57 94.11 14.16 97.52 17.57 100.93 14.16 104.34 17.57 107.75 14.16 111.16 17.57 114.57 14.16 117.98 17.57 121.4 14.16 124.81 17.71 128.35 21.26 124.81 17.85 121.4 21.26 117.98 17.85 114.57 21.26 111.16 17.85 107.75 21.26 104.34 17.85 100.93 21.26 97.52 17.85 94.11 21.26 90.7 17.85 87.29 21.26 83.88 17.85 80.47 21.26 77.06 17.85 73.65 21.26 70.24 17.85 66.82"/><polygon class="cls-6" points="24.67 66.82 28.08 63.41 24.53 59.87 20.98 63.41 24.39 66.82 20.98 70.24 24.39 73.65 20.98 77.06 24.39 80.47 20.98 83.88 24.39 87.29 20.98 90.7 24.39 94.11 20.98 97.52 24.39 100.93 20.98 104.34 24.39 107.75 20.98 111.16 24.39 114.57 20.98 117.98 24.39 121.4 20.98 124.81 24.53 128.35 28.08 124.81 24.67 121.4 28.08 117.98 24.67 114.57 28.08 111.16 24.67 107.75 28.08 104.34 24.67 100.93 28.08 97.52 24.67 94.11 28.08 90.7 24.67 87.29 28.08 83.88 24.67 80.47 28.08 77.06 24.67 73.65 28.08 70.24 24.67 66.82"/><polygon class="cls-6" points="31.49 66.82 34.9 63.41 31.35 59.87 27.81 63.41 31.22 66.82 27.81 70.24 31.22 73.65 27.81 77.06 31.22 80.47 27.81 83.88 31.22 87.29 27.81 90.7 31.22 94.11 27.81 97.52 31.22 100.93 27.81 104.34 31.22 107.75 27.81 111.16 31.22 114.57 27.81 117.98 31.22 121.4 27.81 124.81 31.35 128.35 34.9 124.81 31.49 121.4 34.9 117.98 31.49 114.57 34.9 111.16 31.49 107.75 34.9 104.34 31.49 100.93 34.9 97.52 31.49 94.11 34.9 90.7 31.49 87.29 34.9 83.88 31.49 80.47 34.9 77.06 31.49 73.65 34.9 70.24 31.49 66.82"/><polygon class="cls-6" points="38.31 66.82 41.72 63.41 38.17 59.87 34.63 63.41 38.04 66.82 34.63 70.24 38.04 73.65 34.63 77.06 38.04 80.47 34.63 83.88 38.04 87.29 34.63 90.7 38.04 94.11 34.63 97.52 38.04 100.93 34.63 104.34 38.04 107.75 34.63 111.16 38.04 114.57 34.63 117.98 38.04 121.4 34.63 124.81 38.17 128.35 41.72 124.81 38.31 121.4 41.72 117.98 38.31 114.57 41.72 111.16 38.31 107.75 41.72 104.34 38.31 100.93 41.72 97.52 38.31 94.11 41.72 90.7 38.31 87.29 41.72 83.88 38.31 80.47 41.72 77.06 38.31 73.65 41.72 70.24 38.31 66.82"/><polygon class="cls-6" points="45.13 66.82 48.54 63.41 45 59.87 41.45 63.41 44.86 66.82 41.45 70.24 44.86 73.65 41.45 77.06 44.86 80.47 41.45 83.88 44.86 87.29 41.45 90.7 44.86 94.11 41.45 97.52 44.86 100.93 41.45 104.34 44.86 107.75 41.45 111.16 44.86 114.57 41.45 117.98 44.86 121.4 41.45 124.81 45 128.35 48.54 124.81 45.13 121.4 48.54 117.98 45.13 114.57 48.54 111.16 45.13 107.75 48.54 104.34 45.13 100.93 48.54 97.52 45.13 94.11 48.54 90.7 45.13 87.29 48.54 83.88 45.13 80.47 48.54 77.06 45.13 73.65 48.54 70.24 45.13 66.82"/><polygon class="cls-6" points="51.95 66.82 55.36 63.41 51.82 59.87 48.27 63.41 51.68 66.82 48.27 70.24 51.68 73.65 48.27 77.06 51.68 80.47 48.27 83.88 51.68 87.29 48.27 90.7 51.68 94.11 48.27 97.52 51.68 100.93 48.27 104.34 51.68 107.75 48.27 111.16 51.68 114.57 48.27 117.98 51.68 121.4 48.27 124.81 51.82 128.35 55.36 124.81 51.95 121.4 55.36 117.98 51.95 114.57 55.36 111.16 51.95 107.75 55.36 104.34 51.95 100.93 55.36 97.52 51.95 94.11 55.36 90.7 51.95 87.29 55.36 83.88 51.95 80.47 55.36 77.06 51.95 73.65 55.36 70.24 51.95 66.82"/><polygon class="cls-6" points="58.78 66.82 62.19 63.41 58.64 59.87 55.09 63.41 58.5 66.82 55.09 70.24 58.5 73.65 55.09 77.06 58.5 80.47 55.09 83.88 58.5 87.29 55.09 90.7 58.5 94.11 55.09 97.52 58.5 100.93 55.09 104.34 58.5 107.75 55.09 111.16 58.5 114.57 55.09 117.98 58.5 121.4 55.09 124.81 58.64 128.35 62.19 124.81 58.78 121.4 62.19 117.98 58.78 114.57 62.19 111.16 58.78 107.75 62.19 104.34 58.78 100.93 62.19 97.52 58.78 94.11 62.19 90.7 58.78 87.29 62.19 83.88 58.78 80.47 62.19 77.06 58.78 73.65 62.19 70.24 58.78 66.82"/><polygon class="cls-6" points="65.6 66.82 69.01 63.41 65.46 59.87 61.91 63.41 65.32 66.82 61.91 70.24 65.32 73.65 61.91 77.06 65.32 80.47 61.91 83.88 65.32 87.29 61.91 90.7 65.32 94.11 61.91 97.52 65.32 100.93 61.91 104.34 65.32 107.75 61.91 111.16 65.32 114.57 61.91 117.98 65.32 121.4 61.91 124.81 65.46 128.35 69.01 124.81 65.6 121.4 69.01 117.98 65.6 114.57 69.01 111.16 65.6 107.75 69.01 104.34 65.6 100.93 69.01 97.52 65.6 94.11 69.01 90.7 65.6 87.29 69.01 83.88 65.6 80.47 69.01 77.06 65.6 73.65 69.01 70.24 65.6 66.82"/><polygon class="cls-6" points="72.42 66.82 75.83 63.41 72.28 59.87 68.73 63.41 72.14 66.82 68.73 70.24 72.14 73.65 68.73 77.06 72.14 80.47 68.73 83.88 72.14 87.29 68.73 90.7 72.14 94.11 68.73 97.52 72.14 100.93 68.73 104.34 72.14 107.75 68.73 111.16 72.14 114.57 68.73 117.98 72.14 121.4 68.73 124.81 72.28 128.35 75.83 124.81 72.42 121.4 75.83 117.98 72.42 114.57 75.83 111.16 72.42 107.75 75.83 104.34 72.42 100.93 75.83 97.52 72.42 94.11 75.83 90.7 72.42 87.29 75.83 83.88 72.42 80.47 75.83 77.06 72.42 73.65 75.83 70.24 72.42 66.82"/><polygon class="cls-6" points="79.24 66.82 82.65 63.41 79.1 59.87 75.55 63.41 78.96 66.82 75.55 70.24 78.96 73.65 75.55 77.06 78.96 80.47 75.55 83.88 78.96 87.29 75.55 90.7 78.96 94.11 75.55 97.52 78.96 100.93 75.55 104.34 78.96 107.75 75.55 111.16 78.96 114.57 75.55 117.98 78.96 121.4 75.55 124.81 79.1 128.35 82.65 124.81 79.24 121.4 82.65 117.98 79.24 114.57 82.65 111.16 79.24 107.75 82.65 104.34 79.24 100.93 82.65 97.52 79.24 94.11 82.65 90.7 79.24 87.29 82.65 83.88 79.24 80.47 82.65 77.06 79.24 73.65 82.65 70.24 79.24 66.82"/><polygon class="cls-6" points="86.06 66.82 89.47 63.41 85.92 59.87 82.38 63.41 85.79 66.82 82.38 70.24 85.79 73.65 82.38 77.06 85.79 80.47 82.38 83.88 85.79 87.29 82.38 90.7 85.79 94.11 82.38 97.52 85.79 100.93 82.38 104.34 85.79 107.75 82.38 111.16 85.79 114.57 82.38 117.98 85.79 121.4 82.38 124.81 85.92 128.35 89.47 124.81 86.06 121.4 89.47 117.98 86.06 114.57 89.47 111.16 86.06 107.75 89.47 104.34 86.06 100.93 89.47 97.52 86.06 94.11 89.47 90.7 86.06 87.29 89.47 83.88 86.06 80.47 89.47 77.06 86.06 73.65 89.47 70.24 86.06 66.82"/><polygon class="cls-6" points="92.88 66.82 96.29 63.41 92.74 59.87 89.2 63.41 92.61 66.82 89.2 70.24 92.61 73.65 89.2 77.06 92.61 80.47 89.2 83.88 92.61 87.29 89.2 90.7 92.61 94.11 89.2 97.52 92.61 100.93 89.2 104.34 92.61 107.75 89.2 111.16 92.61 114.57 89.2 117.98 92.61 121.4 89.2 124.81 92.74 128.35 96.29 124.81 92.88 121.4 96.29 117.98 92.88 114.57 96.29 111.16 92.88 107.75 96.29 104.34 92.88 100.93 96.29 97.52 92.88 94.11 96.29 90.7 92.88 87.29 96.29 83.88 92.88 80.47 96.29 77.06 92.88 73.65 96.29 70.24 92.88 66.82"/><polygon class="cls-6" points="99.7 66.82 103.11 63.41 99.57 59.87 96.02 63.41 99.43 66.82 96.02 70.24 99.43 73.65 96.02 77.06 99.43 80.47 96.02 83.88 99.43 87.29 96.02 90.7 99.43 94.11 96.02 97.52 99.43 100.93 96.02 104.34 99.43 107.75 96.02 111.16 99.43 114.57 96.02 117.98 99.43 121.4 96.02 124.81 99.57 128.35 103.11 124.81 99.7 121.4 103.11 117.98 99.7 114.57 103.11 111.16 99.7 107.75 103.11 104.34 99.7 100.93 103.11 97.52 99.7 94.11 103.11 90.7 99.7 87.29 103.11 83.88 99.7 80.47 103.11 77.06 99.7 73.65 103.11 70.24 99.7 66.82"/><polygon class="cls-6" points="106.52 66.82 109.93 63.41 106.39 59.87 102.84 63.41 106.25 66.82 102.84 70.24 106.25 73.65 102.84 77.06 106.25 80.47 102.84 83.88 106.25 87.29 102.84 90.7 106.25 94.11 102.84 97.52 106.25 100.93 102.84 104.34 106.25 107.75 102.84 111.16 106.25 114.57 102.84 117.98 106.25 121.4 102.84 124.81 106.39 128.35 109.93 124.81 106.52 121.4 109.93 117.98 106.52 114.57 109.93 111.16 106.52 107.75 109.93 104.34 106.52 100.93 109.93 97.52 106.52 94.11 109.93 90.7 106.52 87.29 109.93 83.88 106.52 80.47 109.93 77.06 106.52 73.65 109.93 70.24 106.52 66.82"/><polygon class="cls-6" points="113.35 66.82 116.76 63.41 113.21 59.87 109.66 63.41 113.07 66.82 109.66 70.24 113.07 73.65 109.66 77.06 113.07 80.47 109.66 83.88 113.07 87.29 109.66 90.7 113.07 94.11 109.66 97.52 113.07 100.93 109.66 104.34 113.07 107.75 109.66 111.16 113.07 114.57 109.66 117.98 113.07 121.4 109.66 124.81 113.21 128.35 116.76 124.81 113.35 121.4 116.76 117.98 113.35 114.57 116.76 111.16 113.35 107.75 116.76 104.34 113.35 100.93 116.76 97.52 113.35 94.11 116.76 90.7 113.35 87.29 116.76 83.88 113.35 80.47 116.76 77.06 113.35 73.65 116.76 70.24 113.35 66.82"/><polygon class="cls-6" points="120.42 66.82 123.83 63.41 120.28 59.87 116.73 63.41 120.14 66.82 116.73 70.24 120.14 73.65 116.73 77.06 120.14 80.47 116.73 83.88 120.14 87.29 116.73 90.7 120.14 94.11 116.73 97.52 120.14 100.93 116.73 104.34 120.14 107.75 116.73 111.16 120.14 114.57 116.73 117.98 120.14 121.4 116.73 124.81 120.28 128.35 123.83 124.81 120.42 121.4 123.83 117.98 120.42 114.57 123.83 111.16 120.42 107.75 123.83 104.34 120.42 100.93 123.83 97.52 120.42 94.11 123.83 90.7 120.42 87.29 123.83 83.88 120.42 80.47 123.83 77.06 120.42 73.65 123.83 70.24 120.42 66.82"/><polygon class="cls-6" points="127.24 66.82 130.65 63.41 127.1 59.87 123.55 63.41 126.96 66.82 123.55 70.24 126.96 73.65 123.55 77.06 126.96 80.47 123.55 83.88 126.96 87.29 123.55 90.7 126.96 94.11 123.55 97.52 126.96 100.93 123.55 104.34 126.96 107.75 123.55 111.16 126.96 114.57 123.55 117.98 126.96 121.4 123.55 124.81 127.1 128.35 130.65 124.81 127.24 121.4 130.65 117.98 127.24 114.57 130.65 111.16 127.24 107.75 130.65 104.34 127.24 100.93 130.65 97.52 127.24 94.11 130.65 90.7 127.24 87.29 130.65 83.88 127.24 80.47 130.65 77.06 127.24 73.65 130.65 70.24 127.24 66.82"/><polygon class="cls-6" points="134.06 66.82 137.47 63.41 133.92 59.87 130.38 63.41 133.79 66.82 130.38 70.24 133.79 73.65 130.38 77.06 133.79 80.47 130.38 83.88 133.79 87.29 130.38 90.7 133.79 94.11 130.38 97.52 133.79 100.93 130.38 104.34 133.79 107.75 130.38 111.16 133.79 114.57 130.38 117.98 133.79 121.4 130.38 124.81 133.92 128.35 137.47 124.81 134.06 121.4 137.47 117.98 134.06 114.57 137.47 111.16 134.06 107.75 137.47 104.34 134.06 100.93 137.47 97.52 134.06 94.11 137.47 90.7 134.06 87.29 137.47 83.88 134.06 80.47 137.47 77.06 134.06 73.65 137.47 70.24 134.06 66.82"/><polygon class="cls-6" points="140.88 66.82 144.29 63.41 140.74 59.87 137.2 63.41 140.61 66.82 137.2 70.24 140.61 73.65 137.2 77.06 140.61 80.47 137.2 83.88 140.61 87.29 137.2 90.7 140.61 94.11 137.2 97.52 140.61 100.93 137.2 104.34 140.61 107.75 137.2 111.16 140.61 114.57 137.2 117.98 140.61 121.4 137.2 124.81 140.74 128.35 144.29 124.81 140.88 121.4 144.29 117.98 140.88 114.57 144.29 111.16 140.88 107.75 144.29 104.34 140.88 100.93 144.29 97.52 140.88 94.11 144.29 90.7 140.88 87.29 144.29 83.88 140.88 80.47 144.29 77.06 140.88 73.65 144.29 70.24 140.88 66.82"/><polygon class="cls-6" points="147.7 66.82 151.11 63.41 147.57 59.87 144.02 63.41 147.43 66.82 144.02 70.24 147.43 73.65 144.02 77.06 147.43 80.47 144.02 83.88 147.43 87.29 144.02 90.7 147.43 94.11 144.02 97.52 147.43 100.93 144.02 104.34 147.43 107.75 144.02 111.16 147.43 114.57 144.02 117.98 147.43 121.4 144.02 124.81 147.57 128.35 151.11 124.81 147.7 121.4 151.11 117.98 147.7 114.57 151.11 111.16 147.7 107.75 151.11 104.34 147.7 100.93 151.11 97.52 147.7 94.11 151.11 90.7 147.7 87.29 151.11 83.88 147.7 80.47 151.11 77.06 147.7 73.65 151.11 70.24 147.7 66.82"/><polygon class="cls-6" points="154.52 66.82 157.93 63.41 154.39 59.87 150.84 63.41 154.25 66.82 150.84 70.24 154.25 73.65 150.84 77.06 154.25 80.47 150.84 83.88 154.25 87.29 150.84 90.7 154.25 94.11 150.84 97.52 154.25 100.93 150.84 104.34 154.25 107.75 150.84 111.16 154.25 114.57 150.84 117.98 154.25 121.4 150.84 124.81 154.39 128.35 157.93 124.81 154.52 121.4 157.93 117.98 154.52 114.57 157.93 111.16 154.52 107.75 157.93 104.34 154.52 100.93 157.93 97.52 154.52 94.11 157.93 90.7 154.52 87.29 157.93 83.88 154.52 80.47 157.93 77.06 154.52 73.65 157.93 70.24 154.52 66.82"/><polygon class="cls-6" points="161.35 66.82 164.76 63.41 161.21 59.87 157.66 63.41 161.07 66.82 157.66 70.24 161.07 73.65 157.66 77.06 161.07 80.47 157.66 83.88 161.07 87.29 157.66 90.7 161.07 94.11 157.66 97.52 161.07 100.93 157.66 104.34 161.07 107.75 157.66 111.16 161.07 114.57 157.66 117.98 161.07 121.4 157.66 124.81 161.21 128.35 164.76 124.81 161.35 121.4 164.76 117.98 161.35 114.57 164.76 111.16 161.35 107.75 164.76 104.34 161.35 100.93 164.76 97.52 161.35 94.11 164.76 90.7 161.35 87.29 164.76 83.88 161.35 80.47 164.76 77.06 161.35 73.65 164.76 70.24 161.35 66.82"/><polygon class="cls-6" points="167.88 66.82 171.29 63.41 167.74 59.87 164.2 63.41 167.61 66.82 164.2 70.24 167.61 73.65 164.2 77.06 167.61 80.47 164.2 83.88 167.61 87.29 164.2 90.7 167.61 94.11 164.2 97.52 167.61 100.93 164.2 104.34 167.61 107.75 164.2 111.16 167.61 114.57 164.2 117.98 167.61 121.4 164.2 124.81 167.74 128.35 171.29 124.81 167.88 121.4 171.29 117.98 167.88 114.57 171.29 111.16 167.88 107.75 171.29 104.34 167.88 100.93 171.29 97.52 167.88 94.11 171.29 90.7 167.88 87.29 171.29 83.88 167.88 80.47 171.29 77.06 167.88 73.65 171.29 70.24 167.88 66.82"/><polygon class="cls-6" points="174.7 66.82 178.11 63.41 174.57 59.87 171.02 63.41 174.43 66.82 171.02 70.24 174.43 73.65 171.02 77.06 174.43 80.47 171.02 83.88 174.43 87.29 171.02 90.7 174.43 94.11 171.02 97.52 174.43 100.93 171.02 104.34 174.43 107.75 171.02 111.16 174.43 114.57 171.02 117.98 174.43 121.4 171.02 124.81 174.57 128.35 178.11 124.81 174.7 121.4 178.11 117.98 174.7 114.57 178.11 111.16 174.7 107.75 178.11 104.34 174.7 100.93 178.11 97.52 174.7 94.11 178.11 90.7 174.7 87.29 178.11 83.88 174.7 80.47 178.11 77.06 174.7 73.65 178.11 70.24 174.7 66.82"/><polygon class="cls-6" points="181.52 66.82 184.93 63.41 181.39 59.87 177.84 63.41 181.25 66.82 177.84 70.24 181.25 73.65 177.84 77.06 181.25 80.47 177.84 83.88 181.25 87.29 177.84 90.7 181.25 94.11 177.84 97.52 181.25 100.93 177.84 104.34 181.25 107.75 177.84 111.16 181.25 114.57 177.84 117.98 181.25 121.4 177.84 124.81 181.39 128.35 184.93 124.81 181.52 121.4 184.93 117.98 181.52 114.57 184.93 111.16 181.52 107.75 184.93 104.34 181.52 100.93 184.93 97.52 181.52 94.11 184.93 90.7 181.52 87.29 184.93 83.88 181.52 80.47 184.93 77.06 181.52 73.65 184.93 70.24 181.52 66.82"/><polygon class="cls-6" points="188.35 66.82 191.76 63.41 188.21 59.87 184.66 63.41 188.07 66.82 184.66 70.24 188.07 73.65 184.66 77.06 188.07 80.47 184.66 83.88 188.07 87.29 184.66 90.7 188.07 94.11 184.66 97.52 188.07 100.93 184.66 104.34 188.07 107.75 184.66 111.16 188.07 114.57 184.66 117.98 188.07 121.4 184.66 124.81 188.21 128.35 191.76 124.81 188.35 121.4 191.76 117.98 188.35 114.57 191.76 111.16 188.35 107.75 191.76 104.34 188.35 100.93 191.76 97.52 188.35 94.11 191.76 90.7 188.35 87.29 191.76 83.88 188.35 80.47 191.76 77.06 188.35 73.65 191.76 70.24 188.35 66.82"/><polygon class="cls-6" points="194.52 66.82 197.93 63.41 194.39 59.87 190.84 63.41 194.25 66.82 190.84 70.24 194.25 73.65 190.84 77.06 194.25 80.47 190.84 83.88 194.25 87.29 190.84 90.7 194.25 94.11 190.84 97.52 194.25 100.93 190.84 104.34 194.25 107.75 190.84 111.16 194.25 114.57 190.84 117.98 194.25 121.4 190.84 124.81 194.39 128.35 197.93 124.81 194.52 121.4 197.93 117.98 194.52 114.57 197.93 111.16 194.52 107.75 197.93 104.34 194.52 100.93 197.93 97.52 194.52 94.11 197.93 90.7 194.52 87.29 197.93 83.88 194.52 80.47 197.93 77.06 194.52 73.65 197.93 70.24 194.52 66.82"/></g><path class="cls-4" d="m98.64,39.91c-1.97-2.97-3.62-4.15-3.29-5.64,1.2-2.16-4.69-.39-5.76-.05-1.06-.33-6.96-2.11-5.76.05.33,1.48-1.32,2.67-3.29,5.64-.99.59-1.97,21.66.33,24.04,3.25,2.39,7.81,2.17,8.72,2.09.91.07,5.48.3,8.72-2.09,2.3-2.37,1.32-23.44.33-24.04Z"/><path class="cls-1" d="m79.54,47.03c-.3.59-.12,15.42,1.33,16.91,3.25,2.39,7.81,2.17,8.72,2.09.91.07,5.48.3,8.72-2.09,1.45-1.49,1.6-10.38,1.26-16.91,0,0-8.75,3.56-20.03,0Z"/><path class="cls-2" d="m79.54,44.66c0,2.37-.12,15.42,1.33,16.91,3.25,2.39,7.81,2.17,8.72,2.09.91.07,5.48.3,8.72-2.09,1.45-1.49,1.6-10.38,1.26-16.91,0,0-8.75-6.83-20.03,0Z"/><path class="cls-10" d="m81.03,30.12c-.3.3-.59,4.75-.3,5.49,9.79,4.6,17.5.15,17.5,0,.3-.74.89-5.3,0-5.4-.89-2.76-15.43-3.36-17.21-.09Z"/><ellipse class="cls-3" cx="89.49" cy="30.27" rx="8.75" ry="2.52"/><ellipse class="cls-11" cx="87.85" cy="30.12" rx="5.64" ry="2.08"/><ellipse class="cls-3" cx="89.04" cy="30.12" rx="5.64" ry="2.08"/><path class="cls-10" d="m98.21,30.12c0,.12.33.89.33.89-1.95.59-3.36,1.19-6.68,1.19-3.69,0-6.68-.93-6.68-2.08s2.99-2.08,6.68-2.08c1.47,0,6.35.93,6.35,2.08Z"/><ellipse class="cls-3" cx="91.27" cy="29.97" rx="2.82" ry="1.04"/><ellipse class="cls-10" cx="90.82" cy="29.97" rx="2.37" ry="1.04"/><path class="cls-15" d="m98.64,39.91c-1.97-2.97-3.62-4.15-3.29-5.64,1.2-2.16-4.69-.39-5.76-.05-1.06-.33-6.96-2.11-5.76.05.33,1.48-1.32,2.67-3.29,5.64-.99.59-1.97,21.66.33,24.04,3.25,2.39,7.81,2.17,8.72,2.09.91.07,5.48.3,8.72-2.09,2.3-2.37,1.32-23.44.33-24.04Z"/><path class="cls-5" d="m97.94,58.07c-2.96,1.04-8.62,2.44-16.95,0,0,.45,0-5.8,0-5.8,6.69,1.78,15.16.89,16.95,0v5.8Z"/><path class="cls-8" d="m84.61,57.13c.21.18.55.36.93.43.56.1.93-.1.98-.46.05-.33-.15-.55-.65-.83-.61-.32-.93-.72-.81-1.21.13-.55.69-.84,1.38-.72.37.06.62.18.78.29-.06.12-.12.24-.18.36-.11-.08-.35-.22-.68-.28-.5-.09-.75.16-.8.4-.07.33.13.55.63.83.62.34.94.67.88,1.19-.06.55-.61.99-1.64.8-.42-.08-.85-.28-1.04-.46.08-.12.15-.23.23-.35Z"/><path class="cls-8" d="m91.36,58.7c-.61-.08-1.2-.2-1.71-.34-.09-.03-.18-.05-.27-.05-1.05-.03-1.88-.75-1.76-1.91.12-1.15.9-1.82,1.86-1.82.97,0,1.68.68,1.79,1.74.09.92-.36,1.57-1.08,1.8,0,0,0,.01,0,.02.43.08.91.13,1.29.15-.04.13-.09.27-.13.4Zm-.63-2.31c-.05-.72-.49-1.43-1.27-1.43-.8,0-1.24.69-1.3,1.47-.06.76.39,1.5,1.27,1.5.9,0,1.35-.72,1.29-1.54Z"/><path class="cls-8" d="m91.72,54.5c.16-.02.31-.04.47-.06.16,1.06.32,2.12.48,3.18.61-.09,1.21-.21,1.81-.35.03.13.06.25.09.38-.79.19-1.59.34-2.4.44-.15-1.19-.3-2.39-.45-3.58Z"/><polygon class="cls-12" points="61.19 85.7 47.34 93.75 48.03 91.15 60.13 83.86 61.19 85.7"/><path class="cls-14" d="m72.71,82.09l-10.43,4.61c-.67.3-1.46.04-1.83-.6l-.92-1.59c-.37-.64-.2-1.45.39-1.89l9.17-6.78c.69-.51,1.68-.31,2.11.44l2.19,3.77c.43.74.12,1.7-.67,2.05Z"/><polygon class="cls-9" points="74.19 81.44 68.93 83.72 65.79 78.31 70.38 74.88 74.19 81.44"/><path class="cls-7" d="m73.11,58.77h43.05c1.4,0,2.53,1.13,2.53,2.53v9.89c0,1.5-1.22,2.73-2.73,2.73h-41.47c-3.45,0-6.24-2.8-6.24-6.24v-4.05c0-2.68,2.18-4.86,4.86-4.86Z" transform="translate(-20.52 54.27) rotate(-29.32)"/><path class="cls-1" d="m74.46,64.65h21.01c.46,0,.84.38.84.84v12.8c0,.83-.67,1.5-1.5,1.5h-18.81c-3.43,0-6.21-2.78-6.21-6.21v-4.28c0-2.57,2.09-4.66,4.66-4.66Z" transform="translate(-24.73 49.93) rotate(-29.32)"/><rect class="cls-12" x="93.07" y="57.97" width="3.76" height="15.15" transform="translate(-19.94 54.9) rotate(-29.32)"/><rect class="cls-13" x="96.36" y="56.24" width="3.16" height="15.15" transform="translate(-18.7 56.14) rotate(-29.32)"/><path class="cls-18" d="m71.43,59.15h45.61v8.2h-48.3c-1.25,0-2.26-1.01-2.26-2.26v-1c0-2.73,2.22-4.95,4.95-4.95Z" transform="translate(-19.22 53.04) rotate(-29.32)"/><rect class="cls-7" x="114.65" y="45.19" width="16.2" height="9.46" transform="translate(-8.72 66.51) rotate(-29.32)"/><rect class="cls-17" x="113.46" y="45.04" width="16.2" height="5.51" transform="translate(-7.83 65.65) rotate(-29.32)"/><path class="cls-7" d="m126.77,40.34l.44-.21c.72-.35,1.58-.09,2,.59l6.52,10.79c.45.74.2,1.7-.55,2.14l-.61.36c-.74.43-1.68.18-2.11-.56l-6.35-10.93c-.45-.78-.15-1.78.66-2.17Z"/><path class="cls-7" d="m124.29,36.08l.44-.21c.72-.35,1.58-.09,2,.59l6.52,10.79c.45.74.2,1.7-.55,2.14l-.61.36c-.74.43-1.68.18-2.11-.56l-6.35-10.93c-.45-.78-.15-1.78.66-2.17Z"/><path class="cls-18" d="m124.29,36.08l.44-.21c.72-.35,1.58-.09,2,.59l6.52,10.79c.45.74.2,1.7-.55,2.14l-.61.36c-.74.43-1.68.18-2.11-.56l-6.35-10.93c-.45-.78-.15-1.78.66-2.17Z"/><path class="cls-7" d="m111.42,47.96l.58-.28c.96-.46,2.11-.12,2.65.79l8.67,14.34c.6.98.27,2.27-.73,2.84l-.81.47c-.98.57-2.24.24-2.81-.74l-8.45-14.53c-.6-1.03-.19-2.36.88-2.88Z"/><path class="cls-7" d="m108.13,42.3l.58-.28c.96-.46,2.11-.12,2.65.79l8.67,14.34c.6.98.27,2.27-.73,2.84l-.81.47c-.98.57-2.24.24-2.81-.74l-8.45-14.53c-.6-1.03-.19-2.36.88-2.88Z"/><path class="cls-18" d="m108.13,42.3l.58-.28c.96-.46,2.11-.12,2.65.79l8.67,14.34c.6.98.27,2.27-.73,2.84l-.81.47c-.98.57-2.24.24-2.81-.74l-8.45-14.53c-.6-1.03-.19-2.36.88-2.88Z"/></svg>